<?xml version="1.0" standalone="no"?>
<!DOCTYPE svg PUBLIC "-//W3C//DTD SVG 20010904//EN"
 "http://www.w3.org/TR/2001/REC-SVG-20010904/DTD/svg10.dtd">
<svg version="1.0" xmlns="http://www.w3.org/2000/svg"
 width="700.000000pt" height="700.000000pt" viewBox="0 0 700.000000 700.000000"
 preserveAspectRatio="xMidYMid meet">
<metadata>
Created by potrace 1.14, written by Peter Selinger 2001-2017
</metadata>
<g transform="translate(0.000000,700.000000) scale(0.100000,-0.100000)"
fill="#000000" stroke="none">
<path d="M1187 4595 c-1 -2 -36 -5 -77 -9 -107 -9 -133 -14 -240 -46 -324
-100 -608 -342 -752 -640 -80 -166 -112 -307 -113 -490 0 -150 7 -219 35 -324
139 -525 633 -899 1183 -896 116 1 142 3 242 21 140 25 351 115 466 199 23 16
45 30 49 30 4 0 38 -20 76 -46 84 -55 206 -115 293 -143 136 -44 218 -56 396
-56 176 0 249 11 390 56 82 27 251 112 311 158 l49 37 85 -55 c151 -97 321
-163 478 -187 20 -3 48 -7 62 -10 34 -5 239 -6 270 0 14 3 43 7 65 10 146 17
346 95 489 191 37 26 75 44 82 41 8 -3 40 -23 72 -44 145 -99 341 -171 532
-197 44 -5 230 -6 289 0 145 14 355 85 491 168 232 139 411 349 508 597 26 67
42 125 71 257 14 65 6 327 -12 409 -55 245 -173 453 -355 625 -303 287 -696
399 -1104 313 -162 -33 -336 -112 -461 -207 l-37 -29 -48 35 c-69 50 -157 99
-242 134 -112 46 -126 51 -240 74 -311 62 -664 -12 -929 -198 -63 -44 -64 -44
-85 -25 -34 31 -165 106 -245 142 -337 147 -717 136 -1046 -32 -33 -17 -93
-53 -134 -80 -73 -49 -74 -49 -95 -30 -64 57 -233 145 -358 186 -87 29 -230
54 -336 59 -40 2 -73 3 -75 2z m267 -304 c93 -25 200 -71 274 -120 28 -18 52
-35 52 -37 0 -1 -25 -39 -56 -83 -276 -401 -272 -941 10 -1341 l46 -65 -27
-23 c-35 -28 -171 -94 -238 -115 -50 -16 -65 -20 -160 -37 -52 -9 -247 -6
-300 5 -203 42 -369 129 -505 264 -366 365 -361 948 12 1307 147 142 321 231
512 263 90 15 292 5 380 -18z m1521 0 c78 -21 256 -102 304 -139 l23 -19 -39
-52 c-41 -54 -122 -197 -136 -241 -5 -14 -12 -34 -17 -45 -57 -129 -86 -362
-67 -530 24 -209 90 -384 213 -563 l44 -62 -53 -33 c-80 -51 -161 -86 -266
-115 -84 -23 -115 -26 -241 -26 -120 0 -160 4 -230 24 -103 28 -207 72 -278
118 -52 35 -54 41 -22 72 14 13 81 121 108 175 83 166 125 345 125 535 0 246
-68 463 -208 666 l-53 78 23 18 c75 59 239 128 365 153 96 19 305 12 405 -14z
m1495 5 c124 -33 260 -93 326 -145 l24 -19 -33 -43 c-118 -156 -200 -360 -224
-559 -16 -126 -4 -299 31 -445 23 -98 114 -292 180 -382 l46 -63 -38 -24
c-169 -106 -346 -156 -540 -151 -64 1 -130 6 -147 9 -140 30 -250 74 -353 139
l-43 28 45 62 c166 234 241 519 213 808 -18 189 -102 408 -214 560 l-44 60 23
20 c62 53 266 137 378 155 19 3 37 7 39 9 11 11 274 -4 331 -19z m1555 -10
c168 -50 286 -118 409 -235 378 -363 385 -945 14 -1312 -84 -84 -163 -139
-273 -190 -128 -60 -235 -82 -395 -83 -147 0 -233 15 -350 61 -65 26 -195 96
-204 111 -3 5 16 37 41 73 25 35 65 107 90 159 25 52 49 102 53 111 4 9 21 65
36 125 26 101 29 123 28 289 -1 164 -3 189 -28 280 -37 136 -96 266 -167 371
l-60 88 23 18 c36 28 188 104 243 122 106 34 179 43 315 41 112 -2 150 -7 225
-29z m-939 -453 c161 -283 157 -623 -13 -914 -45 -78 -59 -88 -74 -55 -7 14
-16 26 -21 26 -4 0 -8 4 -8 10 0 5 -13 31 -28 57 -55 95 -98 243 -107 373 -13
174 34 368 127 523 l52 88 18 -23 c10 -13 34 -51 54 -85z m-3066 51 c98 -146
143 -298 144 -489 1 -161 -26 -278 -92 -410 -28 -57 -84 -145 -92 -145 -14 0
-91 146 -123 230 -90 242 -81 480 29 708 41 86 82 152 95 152 4 0 21 -21 39
-46z m1533 -31 c184 -305 174 -692 -25 -985 -29 -43 -32 -42 -84 47 -83 140
-124 281 -129 447 -5 185 47 363 157 532 13 20 25 36 29 36 3 0 26 -35 52 -77z"/>
</g>
</svg>
